<svg version="1.1" viewBox="0 0 72 72" xmlns="http://www.w3.org/2000/svg"><g transform="matrix(2 0 0 2 .024 .00013536)"><path d="m7.317 11c-5.723 9.083 0.958 18 0.958 18s2.874-0.442 6.875-5.2c4-4.758-7.833-12.8-7.833-12.8zm21.342 0c5.723 9.083-0.958 18-0.958 18s-2.874-0.442-6.875-5.2 7.833-12.8 7.833-12.8z" fill="#662113"/><path d="m15.203 31.557c-0.123-0.229-0.317-0.384-0.531-0.496-2.032-2.172-0.589-4.717-0.589-4.717 0-0.703 1.271-2.544 0-2.544l-1.272 1.272c-1.272 1.271-1.272 5.089-1.272 5.089h-2.544c-0.703 0-1.272 0.568-1.272 1.272 0 0.701 0.569 1.271 1.272 1.271h1.408l-0.282 0.153c-0.618 0.334-0.848 1.105-0.514 1.726 0.334 0.616 1.106 0.848 1.724 0.514l3.357-1.816c0.619-0.334 0.846-1.105 0.515-1.724zm5.596 0c0.123-0.229 0.317-0.384 0.53-0.496 2.033-2.172 0.589-4.717 0.589-4.717 0-0.703-1.271-2.544 0-2.544l1.272 1.272c1.273 1.271 1.273 5.089 1.273 5.089h2.544c0.704 0 1.271 0.568 1.271 1.272 0 0.701-0.566 1.271-1.271 1.271h-1.408l0.281 0.153c0.62 0.334 0.848 1.105 0.515 1.726-0.336 0.616-1.105 0.848-1.726 0.514l-3.356-1.816c-0.619-0.334-0.847-1.105-0.514-1.724z" fill="#ffac33"/><path d="m28.278 11.292c2.891-6.092 0-10.542 0-10.542s-5.781 0.959-6.744 2.875c-1.219 2.424 6.744 7.667 6.744 7.667z" fill="#662113"/><path d="m29.562 12.738c0 10.297-3.152 20.595-11.562 20.595-8.409 0-11.563-10.298-11.563-20.595 0-10.298 5.177-10.655 11.563-10.655 6.387 0 11.562 0.357 11.562 10.655z" fill="#662113"/><path d="m27.666 17.738c0 10.297-7.774 14.595-9.666 14.595s-9.666-4.298-9.666-14.595c0-10.298 19.332-10.298 19.332 0z" fill="#efd4cd"/><path d="m7.722 11.292c-2.891-6.092 0-10.542 0-10.542s5.782 0.959 6.746 2.875c1.218 2.424-6.746 7.667-6.746 7.667z" fill="#662113"/><path d="m14.929 4.373c-4.227-1.584-7.207-3.623-7.207-3.623s-2.076 3.221-0.928 7.926c0.446 2.137 1.94 4.195 3.904 4.662 2.637 0.627 7.302-0.049 7.302-3.963 0-2.695-1.074-4.252-3.071-5.002zm6.142 0c4.227-1.584 7.206-3.623 7.206-3.623s2.076 3.221 0.928 7.926c-0.445 2.137-1.939 4.195-3.902 4.662-2.638 0.627-7.303-0.049-7.303-3.963 0-2.695 1.074-4.252 3.071-5.002z" fill="#eed6ce"/><path d="m16.083 8.417c0 2.117-1.716 3.833-3.833 3.833s-3.833-1.716-3.833-3.833 1.717-3.833 3.833-3.833c2.117-1e-3 3.833 1.716 3.833 3.833zm11.5 0c0 2.117-1.716 3.833-3.833 3.833s-3.833-1.716-3.833-3.833 1.716-3.833 3.833-3.833 3.833 1.716 3.833 3.833z" fill="#13dbcf"/><path d="m14.167 8.417c0 1.059-0.858 1.917-1.917 1.917s-1.917-0.858-1.917-1.917c0-1.058 0.858-1.917 1.917-1.917s1.917 0.858 1.917 1.917zm11.5 0c0 1.059-0.858 1.917-1.917 1.917s-1.917-0.858-1.917-1.917c0-1.058 0.858-1.917 1.917-1.917s1.917 0.858 1.917 1.917z" fill="#292f33"/><path d="m20.875 12.729c0 2.382-2.875 3.354-2.875 3.354s-2.875-0.973-2.875-3.354 2.875-3.354 2.875-3.354 2.875 0.972 2.875 3.354z" fill="#ffcc4d"/><path d="m20.875 12.729c0 2.382-2.875 3.354-2.875 3.354s-2.875-0.973-2.875-3.354c1.198 1.198 2.875 1.438 2.875 1.438s1.677-0.24 2.875-1.438z" fill="#f4900c"/></g></svg>
